<svg width="1000" height="952" viewBox="0 0 1000 952" fill="none" xmlns="http://www.w3.org/2000/svg">
<mask id="mask0_2320_46" style="mask-type:alpha" maskUnits="userSpaceOnUse" x="27" y="0" width="953" height="952">
<circle cx="503.496" cy="475.524" r="468.531" fill="url(#paint0_linear_2320_46)" stroke="#1D1C1F" stroke-width="13.986"/>
</mask>
<g mask="url(#mask0_2320_46)">
<circle cx="503.496" cy="475.524" r="468.531" fill="#1D1C1F" stroke="#1D1C1F" stroke-width="13.986"/>
<circle cx="503.497" cy="475.525" r="426.573" fill="#F5889B"/>
<circle cx="503.497" cy="475.524" r="258.741" fill="#A081F5"/>
<path fill-rule="evenodd" clip-rule="evenodd" d="M799.296 338.31C821.991 338.31 843.142 341.444 862.567 347.963C881.944 354.19 899.11 363.202 913.781 375.179H913.782C928.473 386.963 940.013 401.104 948.145 417.55C956.573 433.962 960.743 451.71 960.743 470.511C960.743 478.23 960.068 485.768 958.714 493.107C959.804 499.603 960.35 506.249 960.35 513.032C960.349 532.242 956.185 550.335 947.708 567.017L947.707 567.016C939.583 583.205 928.093 597.265 913.53 609.186L913.46 609.244L913.389 609.301C898.747 621.046 881.625 630.043 862.3 636.476L862.173 636.517C842.772 642.819 821.731 645.856 799.215 645.856C776.318 645.856 754.984 642.83 735.38 636.537L735.285 636.507L735.191 636.476C727.051 633.766 719.302 630.599 711.965 626.966L723.91 642.732H600.85L595.301 635.376L547.132 571.508H537.918V600.211H537.524V642.732H437.355V566.885L408.188 631.818L403.286 642.732H318.483L313.529 631.978L292.411 586.13V600.211H292.018V642.732H42.0098V387.08H42.4033V344.559H309.271L314.147 355.552L355.439 448.644L355.484 448.746L355.528 448.849C356.675 451.52 358.345 455.25 360.567 460.096C360.855 460.673 361.145 461.259 361.434 461.853C363.275 457.7 364.911 453.778 366.343 450.083L366.476 449.741L366.621 449.405L407.287 355.688L412.116 344.559H582.617C604.89 344.559 624.623 347.528 640.988 354.399C655.894 360.393 668.22 369.475 676.97 381.962C679.154 379.922 681.419 377.944 683.762 376.027L684.809 375.179C699.425 363.246 716.438 354.24 735.585 348.005V348.004C755.23 341.464 776.523 338.31 799.296 338.31ZM798.902 480.29C789.598 480.29 781.373 481.451 774.104 483.596L773.971 483.635L773.836 483.673C766.681 485.667 760.886 488.447 756.192 491.816L756.035 491.929L755.876 492.038C755.853 492.054 755.83 492.07 755.807 492.086C756.013 492.241 756.221 492.398 756.435 492.552C761.232 495.818 767.14 498.638 774.374 500.844C781.702 502.813 789.974 503.877 799.296 503.877C808.675 503.877 816.841 502.8 823.924 500.84C831.44 498.608 837.267 495.788 841.731 492.634C841.852 492.547 841.969 492.457 842.088 492.37C841.932 492.26 841.775 492.148 841.615 492.038L841.341 491.85L841.073 491.651C836.758 488.454 831.115 485.704 823.761 483.701L823.518 483.635L823.276 483.562C816.29 481.453 808.214 480.29 798.902 480.29Z" fill="#1D1C1F"/>
<path d="M799.296 356.8C820.359 356.8 839.544 359.716 856.854 365.547C874.371 371.17 889.491 379.188 902.212 389.601C914.933 399.806 924.735 411.885 931.617 425.838C938.708 439.583 942.253 454.474 942.253 470.51C942.253 486.963 938.708 502.165 931.617 516.119C924.735 529.864 914.933 541.943 902.212 552.356C889.491 562.561 874.371 570.578 856.854 576.41C839.544 582.033 820.463 584.844 799.608 584.844C778.337 584.844 758.942 582.033 741.425 576.41C723.907 570.578 708.788 562.561 696.066 552.356C683.345 541.943 673.544 529.864 666.662 516.119C661.362 505.373 658.105 493.948 656.887 481.844C650.14 489.561 641.755 495.885 631.729 500.812C630.289 501.531 628.825 502.206 627.339 502.845L687.098 581.72H610.457L556.74 510.496H519.428V581.72H456.239V438.075L391.716 581.72H330.717L255.172 417.716H125.646V445.519H256.717V496.75H125.646V527.052H273.921V581.72H60.8936V363.048H297.245L338.537 456.14C339.788 459.056 341.561 463.013 343.855 468.011C346.358 473.009 348.965 478.84 351.676 485.504C354.595 491.96 357.411 498.938 360.122 506.435C360.518 507.53 360.906 508.632 361.288 509.74C362.246 507.118 363.213 504.558 364.188 502.061C367.734 493.314 371.174 485.192 374.511 477.695C378.056 470.198 381.08 463.221 383.583 456.765L424.249 363.048H582.617C603.471 363.048 620.572 365.86 633.919 371.483C647.474 376.898 657.484 385.02 663.949 395.849C667.753 401.904 670.471 408.737 672.106 416.348C678.547 406.334 686.636 397.417 696.379 389.601C709.1 379.188 724.116 371.17 741.425 365.547C758.943 359.716 778.233 356.8 799.296 356.8ZM799.296 419.278C788.452 419.278 778.442 420.632 769.266 423.339C760.298 425.838 752.477 429.483 745.804 434.273C739.131 438.855 734.022 444.269 730.477 450.517C726.931 456.765 725.158 463.534 725.158 470.823C725.158 478.112 726.931 484.88 730.477 491.127C734.022 497.375 739.13 502.894 745.804 507.684C752.477 512.266 760.298 515.91 769.266 518.618C778.442 521.117 788.452 522.367 799.296 522.367C810.14 522.367 820.046 521.117 829.014 518.618C838.189 515.91 846.01 512.266 852.475 507.684C859.148 502.894 864.258 497.375 867.803 491.127C871.556 484.88 873.433 478.112 873.433 470.823C873.433 463.534 871.556 456.765 867.803 450.517C864.258 444.269 859.148 438.855 852.475 434.273C846.01 429.483 838.189 425.838 829.014 423.339C820.046 420.632 810.14 419.278 799.296 419.278ZM519.428 463.637H578.863C583.868 463.637 588.456 462.804 592.627 461.138C596.798 459.472 600.134 456.869 602.637 453.329C605.348 449.788 606.704 445.311 606.704 439.896C606.704 434.273 605.348 429.796 602.637 426.463C600.134 422.923 596.694 420.32 592.314 418.654C587.935 416.988 583.138 416.154 577.925 416.154H519.428V463.637Z" fill="#FDFEFD"/>
</g>
<defs>
<linearGradient id="paint0_linear_2320_46" x1="-41.9582" y1="192.308" x2="979.021" y2="877.622" gradientUnits="userSpaceOnUse">
<stop stop-color="#EFA960"/>
<stop offset="0.482504" stop-color="#F5889B"/>
<stop offset="1" stop-color="#A081F5"/>
</linearGradient>
</defs>
</svg>
