<svg width="235" height="235" viewBox="0 0 235 235" fill="none" xmlns="http://www.w3.org/2000/svg">
<path d="M110.178 0H124.818C125.697 0.758736 129.264 0.561902 130.598 0.691139C144.054 1.99488 157.544 6.08753 169.683 12.0527C194.4 24.3351 214.038 44.882 225.19 70.1294C230.594 82.4292 234.201 95.9948 234.647 109.465C234.653 109.662 234.881 109.994 235 110.142V124.998C234.982 125.046 234.963 125.095 234.943 125.143C234.135 133.394 233.12 141.058 230.816 149.092C221.752 181.314 199.443 208.178 169.434 223.006C157.675 228.722 145.438 232.372 132.532 234.149C131.023 234.357 126.101 234.53 125.021 235H109.163C109.209 235.041 98.7367 233.543 97.7584 233.366C60.7785 226.995 29.0204 203.443 12.1848 169.907C6.1494 157.704 2.15618 144.154 0.678439 130.628C0.551008 129.462 0.550694 125.672 0 125.015V110.185C0.557267 109.575 0.372663 109.069 0.419521 108.296C3.76229 53.177 48.8988 6.48568 103.776 0.747449C105.22 0.596457 109.242 0.7882 110.178 0Z" fill="#FAF9FC"/>
<path d="M108.78 4.32751C171.267 -0.487036 225.834 46.2496 230.679 108.735C235.523 171.22 188.812 225.809 126.329 230.683C63.8043 235.56 9.17044 188.812 4.32258 126.284C-0.525264 63.7568 46.25 9.14531 108.78 4.32751Z" fill="#00A6C8"/>
<path d="M183.673 76.6235C184.182 77.1018 186.385 80.8347 186.806 81.5978C192.354 91.5628 195.711 102.597 196.653 113.964C198.373 134.86 191.771 155.591 178.284 171.645C164.858 187.692 145.639 197.789 124.807 199.74C103.309 201.6 82.6059 195.441 66.0495 181.469C49.6729 167.755 39.5268 148.01 37.9117 126.711C36.8734 108.39 40.5774 92.3027 50.637 76.8445C52.4817 78.7227 56.1478 82.3211 58.0826 83.9081C54.8034 88.4791 52.9484 92.1602 52.4934 97.8729C51.1453 114.794 65.3376 130.295 82.0802 131.544C88.6152 132.067 95.0917 129.985 100.098 125.752C104.874 130.84 112.645 138.364 117.732 143.011C121.813 138.588 126.467 134.341 130.647 129.989C132.366 128.199 134.831 125.945 136.285 124.045C145.935 131.334 159.059 129.968 168.661 123.353C175.892 118.457 180.878 110.885 182.519 102.307C183.895 94.7257 182.248 88.4734 177.923 82.2094C179.852 80.3608 181.769 78.4987 183.673 76.6235Z" fill="#FAF9FC"/>
<path d="M113.004 34.9976C115.565 34.8585 118.132 34.8615 120.692 35.0063C144.601 36.3426 167.004 47.1074 182.987 64.9394C174.526 73.8348 165.423 82.7517 156.745 91.449L119.506 128.819L117.603 130.817C112.439 125.401 106.071 119.386 100.697 114.013L51.4698 64.8715C54.4989 61.6175 57.7037 58.1313 61.1487 55.3122C76.5733 42.6906 93.2753 36.1854 113.004 34.9976Z" fill="#FAF9FC"/>
<path d="M114.172 44.1637L114.344 44.1449C116.904 43.8885 123.033 44.2844 125.562 44.6108C143.454 46.9185 156.347 53.7138 170.094 64.8019C153.534 82.0237 135.87 98.8554 119.372 116.058L117.729 117.724C115.156 115.658 112.471 112.828 110.104 110.46L99.2845 99.6281L64.2158 64.7485C79.2576 51.9086 94.1427 45.0445 114.172 44.1637Z" fill="#00A6C8"/>
<path d="M168.961 91.488C169.637 91.8786 170.405 93.0552 170.801 93.7535C172.859 97.3811 173.39 101.088 172.292 105.121C171.039 109.593 168.053 113.379 163.997 115.64C159.869 117.968 156.009 118.352 151.508 117.086C149.247 116.213 148.254 115.46 146.344 114.04C153.821 106.46 161.36 98.9428 168.961 91.488Z" fill="#FAF9FC"/>
<path d="M67.3309 92.1489C68.6409 92.6377 87.6242 112.218 90.273 114.583C88.643 115.956 87.468 116.68 85.5611 117.557C75.933 120.92 65.6892 114.049 63.9801 104.222C63.1677 99.55 64.6557 95.903 67.3309 92.1489Z" fill="#FAF9FC"/>
</svg>
