<svg width="235" height="235" viewBox="0 0 235 235" fill="none" xmlns="http://www.w3.org/2000/svg">
<path d="M110.006 0H124.846C125.49 0.541377 130.333 0.639705 131.649 0.785423C185.199 6.71719 229.204 51.1678 234.426 104.82C234.527 105.861 234.504 109.365 235 110.006V125.035C234.984 125.088 234.966 125.14 234.95 125.193C231.503 181.056 187.305 227.701 131.739 234.236C130.298 234.406 126.46 234.587 125.225 235H108.153C105.727 234.435 102.152 234.038 99.6047 233.655C96.6242 233.196 93.6624 232.622 90.7258 231.939C40.3498 220.62 3.35244 175.866 0.0770798 125.143C0.0513865 125.109 0.0256933 125.075 0 125.042V110.168C0.613508 109.449 0.43427 106.564 0.55356 105.464C0.9022 102.249 1.22582 99.0052 1.82638 95.8256C8.72924 59.6572 32.049 28.7508 64.9344 12.1869C76.0953 6.60015 88.6964 2.72891 101.054 1.11105C102.348 0.941767 109.437 0.466434 110.006 0Z" fill="#E8E4F2"/>
<path d="M109.41 4.2826C171.933 -0.184722 226.242 46.8701 230.725 109.392C235.207 171.913 188.164 226.234 125.644 230.729C63.1023 235.227 8.76006 188.167 4.27666 125.625C-0.206768 63.0828 46.8671 8.75139 109.41 4.2826Z" fill="#FEFEFE"/>
<path d="M185.368 83.5138C190.173 79.078 196.741 72.1526 201.306 67.378C203.129 70.9138 204.79 73.7563 206.481 77.4772C211.654 88.9264 214.631 101.245 215.257 113.793C215.903 133.544 212.571 149.947 203.07 167.423C190.691 190.177 169.823 207.117 145.011 214.556C120.408 221.804 93.938 219.03 71.3735 206.838C48.1778 194.158 30.9872 172.762 23.6017 147.379C17.5494 126.431 18.3972 104.092 26.0198 83.6634C28.2744 77.665 30.5895 73.1596 33.6523 67.5607C34.4114 67.8881 47.8679 81.8906 49.619 83.5884C44.8788 89.1086 42.101 96.3064 41.3715 103.505C40.4262 113.136 43.3316 122.749 49.4526 130.245C55.4823 137.667 64.2195 142.383 73.7336 143.349C83.504 144.273 92.7031 141.141 100.22 134.938C101.597 136.536 104.196 139.025 105.752 140.603C109.697 144.56 113.611 148.548 117.494 152.566C122.967 146.731 129.242 140.599 134.893 134.858C139.597 139.771 149.36 143.056 156.115 143.404C165.539 143.85 174.757 140.549 181.757 134.222C189.27 127.438 193.322 118.508 193.839 108.424C194.271 99.9934 191.078 89.8111 185.368 83.5138Z" fill="#4F98F1"/>
<path d="M32.9099 149.906C33.6587 150.125 35.0398 150.528 35.502 151.122L35.2732 151.611C34.5962 152 34.1854 152.36 33.4685 152.054C33.1866 151.295 33.0758 150.694 32.9099 149.906Z" fill="#7CB5F1"/>
<path d="M198.333 149.006C199.591 148.944 200.458 148.87 201.723 149.045L201.824 149.389C200.181 149.895 199.564 150.347 198.333 149.006Z" fill="#7CB5F1"/>
<path d="M114.596 19.6063C146.953 18.3141 175.607 33.5043 195.36 58.5956C183.455 70.1482 171.01 83.1044 159.379 95.0146L119.271 135.779L117.475 137.611C113.197 133.021 108.4 128.299 103.979 123.806L79.3566 98.8175C66.379 85.6426 52.836 71.3193 39.6117 58.534C41.5941 56.3761 43.4998 53.7563 45.5886 51.5017C64.4409 31.1526 87.1724 20.9417 114.596 19.6063Z" fill="#79B4F2"/>
<path d="M114.353 32.685C133.754 31.65 153.849 38.4085 169.139 50.2329C172.192 52.5946 174.821 55.3494 177.779 57.816L119.284 117.215L117.495 119.087C116.14 117.483 113.496 114.918 111.965 113.354L57.2698 57.8352C60.2197 55.1364 62.9846 52.5071 66.1734 50.0835C80.809 38.9604 96.1572 33.6812 114.353 32.685Z" fill="#FEFEFE"/>
<path d="M56.9462 91.0269C59.1514 93.5451 63.2997 97.5034 65.7924 100.03L82.4579 116.946C85.8496 120.387 89.6341 124.066 92.8438 127.639C90.5567 129.069 88.581 130.279 86.0692 131.264C85.2095 131.594 83.8661 131.963 82.961 132.176C76.3679 133.752 69.4182 132.608 63.6774 129.004C57.9422 125.401 53.8641 119.677 52.3336 113.08C50.3852 104.692 52.6001 98.0322 56.9462 91.0269Z" fill="#7CB5F1"/>
<path d="M177.748 91.258L178.16 91.3923C179.119 92.5531 179.806 93.6778 180.48 95.0226C183.646 101.354 184.168 108.684 181.93 115.399C179.763 121.874 175.1 127.216 168.977 130.238C162.761 133.327 155.959 133.553 149.435 131.348C146.723 130.423 144.469 129.047 142.2 127.336C145.745 124.248 151.695 117.759 155.201 114.185C162.758 106.583 170.273 98.9403 177.748 91.258Z" fill="#7BAFF1"/>
</svg>
