<svg width="235" height="235" viewBox="0 0 235 235" fill="none" xmlns="http://www.w3.org/2000/svg">
<path d="M110.147 0H124.836C125.769 0.787119 129.088 0.475191 130.426 0.613215C143.956 2.0084 157.107 5.94061 169.358 11.9039C194.194 24.1444 213.94 44.7221 225.145 70.0419C230.598 82.4123 234.174 95.9328 234.665 109.466C234.672 109.659 234.883 109.979 235 110.128V125.009C234.982 125.057 234.963 125.105 234.945 125.154C234.155 133.182 233.173 140.812 230.956 148.627C222.028 180.915 199.803 207.889 169.82 222.83C158.004 228.728 144.848 232.556 131.763 234.243C130.271 234.435 126.433 234.571 125.209 235H109.163C109.174 235.009 98.4166 233.492 97.4034 233.311C60.6385 226.859 29.081 203.422 12.28 170.09C6.13281 157.793 2.11967 144.026 0.641277 130.373C0.514503 129.202 0.580053 125.71 0 125.023V110.152C0.12461 110.003 0.3664 109.668 0.370701 109.465C0.464102 105.064 0.997669 100.359 1.78662 96.0328C10.1358 51.4329 43.3382 15.582 87.1676 3.84138C92.7763 2.3332 98.5008 1.29533 104.282 0.738531C105.488 0.623425 109.415 0.614633 110.147 0Z" fill="#EBE6F4"/>
<path d="M108.688 4.33206C171.188 -0.536321 225.801 46.1819 230.672 108.682C235.542 171.181 188.826 225.796 126.327 230.669C63.8243 235.542 9.20606 188.823 4.3352 126.32C-0.535646 63.8172 46.1855 9.20069 108.688 4.33206Z" fill="#172D21"/>
<path d="M76.3387 58.7489L110.738 58.7094C117.844 58.7073 127.615 58.4209 134.401 59.2351C138.775 59.7926 143.07 60.8508 147.202 62.3884C161.74 67.8191 173.534 78.7881 180.002 92.8941C186.517 107.196 187.096 123.497 181.611 138.225C176.11 152.883 164.981 164.736 150.697 171.148C138.211 177.189 125.382 176.269 111.992 176.271L76.2756 176.264C76.6697 165.894 76.2974 153.813 76.3674 143.252C71.5623 143.159 66.533 143.22 61.7102 143.214L61.7075 137.435C61.7738 126.645 66.7099 124.593 76.3571 124.671C76.3392 119.895 76.3456 115.119 76.3759 110.343C75.5055 110.351 74.635 110.353 73.7645 110.349C60.8503 110.27 61.668 101.228 61.7309 91.7985C66.5739 91.731 71.4974 91.7723 76.3468 91.768L76.3387 58.7489Z" fill="#FEBC38"/>
<path d="M94.686 77.2312C97.0584 77.3783 100.828 77.2549 103.284 77.2519L120.323 77.237C123.766 77.2386 127.793 77.1702 131.178 77.5195C140.198 78.4592 148.62 82.4724 155.031 88.8853C162.668 96.4528 166.934 106.778 166.867 117.528C166.907 128.193 162.694 138.434 155.161 145.983C143.151 157.988 131.8 157.741 116.44 157.745L94.7236 157.741C94.7309 152.953 94.7995 148.014 94.6465 143.24L118.992 143.215C134.531 143.259 148.11 144.472 150.401 124.784C144.214 124.505 136.874 124.684 130.602 124.686L94.7236 124.694L94.6869 110.313L150.314 110.288C149.998 105.151 148.616 100.88 144.876 97.1438C142.468 94.7819 139.46 93.1245 136.176 92.3516C132.397 91.4634 123.783 91.7475 119.43 91.754L94.7243 91.7884L94.686 77.2312Z" fill="#172D21"/>
</svg>
