<?xml version="1.0" encoding="UTF-8" standalone="no"?>
<svg
   width="235"
   height="235"
   viewBox="0 0 235 235"
   fill="none"
   version="1.1"
   id="svg10"
   sodipodi:docname="wbtc Vector.svg"
   xmlns:inkscape="http://www.inkscape.org/namespaces/inkscape"
   xmlns:sodipodi="http://sodipodi.sourceforge.net/DTD/sodipodi-0.dtd"
   xmlns="http://www.w3.org/2000/svg"
   xmlns:svg="http://www.w3.org/2000/svg">
  <defs
     id="defs10" />
  <sodipodi:namedview
     id="namedview10"
     pagecolor="#ffffff"
     bordercolor="#000000"
     borderopacity="0.25"
     inkscape:showpageshadow="2"
     inkscape:pageopacity="0.0"
     inkscape:pagecheckerboard="0"
     inkscape:deskcolor="#d1d1d1">
    <inkscape:page
       x="0"
       y="0"
       width="235"
       height="235"
       id="page2"
       margin="0"
       bleed="0" />
  </sodipodi:namedview>
  <path
     d="M 108.627,4.33286 C 171.128,-0.569328 225.769,46.1247 230.669,108.626 235.569,171.127 188.875,225.767 126.373,230.665 63.8746,235.565 9.23757,188.871 4.33727,126.372 -0.563064,63.873 46.1288,9.23488 108.627,4.33286 Z"
     fill="#2d2437"
     id="path2" />
  <path
     d="M 112.397,9.27447 C 172.145,6.41798 222.891,52.5489 225.727,112.298 228.563,172.047 182.414,222.776 122.664,225.592 62.9435,228.405 12.2442,182.284 9.4098,122.564 6.57541,62.8448 52.6788,12.1295 112.397,9.27447 Z"
     fill="#fdfcfe"
     id="path3" />
  <path
     d="m 98.9176,58.0725 c 3.7394,0.0214 7.4794,0.0177 11.2194,-0.011 -0.126,5.943 -0.003,12.3212 0.005,18.2981 l 9.232,0.0081 -0.042,-18.2793 11.387,-0.014 c -0.322,4.9921 0,13.2387 -0.084,18.5388 0.934,0.0854 1.866,0.1877 2.795,0.3068 7.451,0.9818 16.457,3.1973 21.267,9.4953 4.44,5.8126 4.905,15.6587 1.191,21.9587 -1.695,2.875 -4.414,4.858 -7.026,6.832 8.712,2.017 15.28,7.518 15.91,16.779 1.661,24.43 -14.179,28.674 -34.333,30.508 0.271,4.35 0.11,10.112 0.109,14.56 l -0.002,4.193 c -3.224,-0.142 -8.233,-0.138 -11.398,-0.002 -0.157,-6.019 -0.031,-12.589 -0.036,-18.651 -3.051,-0.035 -6.102,-0.045 -9.153,-0.029 0.109,6.191 0.024,12.505 0.097,18.729 l -11.3461,0.029 c -0.0863,-6.257 -0.0044,-12.712 -0.0051,-18.986 -7.3761,0.107 -15.4863,-0.245 -22.7647,0.069 0.7091,-3.858 1.6232,-9.833 1.9759,-13.673 2.6337,0.121 6.1676,0.394 8.7375,0.034 2.0521,-0.287 2.8668,-1.174 3.9686,-2.771 0.3892,-16.358 -0.1792,-32.921 0.0379,-49.2973 0.0215,-1.6273 -0.132,-4.5371 -1.234,-5.71 -2.963,-3.1537 -9.5402,-2.2543 -13.5364,-2.0471 -0.0151,-4.0879 -9e-4,-8.1756 0.0425,-12.2634 6.9373,0.3099 15.8391,0.0338 23.0164,0.0604 C 98.7709,70.799 98.9217,64.0733 98.9176,58.0725 Z"
     fill="#f59044"
     id="path4" />
  <path
     d="m 112.121,123.781 c 9.87,-0.431 32.75,-0.916 29.936,14.967 -0.529,2.992 -2.792,4.991 -5.227,6.558 -7.083,3.832 -18.405,3.839 -26.409,3.554 0.203,-1.73 0.011,-4.721 0.069,-6.562 0.183,-5.818 -0.282,-12.333 0.001,-18.107 0.545,-0.459 0.795,-0.332 1.63,-0.41 z"
     fill="#fdfcfe"
     id="path5" />
  <path
     d="m 110.411,89.5495 c 4.047,0.2636 8.114,-0.1382 12.273,0.2813 7.274,0.7339 15.108,3.4367 14.345,12.3722 -0.23,2.697 -1.581,4.724 -3.616,6.396 -5.743,4.353 -16.034,3.871 -22.974,3.845 0.152,-2.198 0.047,-5.846 0.046,-8.16 0.021,-4.912 -0.004,-9.8236 -0.074,-14.7345 z"
     fill="#fdfcfe"
     id="path6" />
</svg>
