<svg width="235" height="235" viewBox="0 0 235 235" fill="none" xmlns="http://www.w3.org/2000/svg">
<path d="M110.001 0H124.849C125.599 0.632698 129.161 0.53477 130.413 0.658847C184.48 6.01669 229.152 50.735 234.424 104.79C234.525 105.834 234.504 109.364 235 110.004V125.037C234.984 125.089 234.966 125.141 234.95 125.194C231.5 181.064 187.304 227.701 131.737 234.236C130.249 234.413 126.459 234.587 125.224 235H108.19C106.473 234.548 102.218 234.043 100.298 233.758C97.0626 233.279 93.8483 232.666 90.6636 231.92C40.3225 220.597 3.34719 175.828 0.0767578 125.145C0.0511719 125.111 0.0255859 125.077 0 125.044V110.164C0.611434 109.45 0.4343 106.559 0.553338 105.464C0.910143 102.181 1.23942 98.8641 1.86568 95.6191C10.3615 51.1965 43.5007 15.5382 87.1827 3.81634C91.0896 2.72891 95.1245 1.99487 99.1326 1.39015C100.595 1.16952 109.415 0.436473 109.91 0.0747855C109.941 0.0515146 109.971 0.0249286 110.001 0Z" fill="#E8E4F2"/>
<path d="M109.227 4.28696C171.739 -0.281059 226.125 46.6771 230.72 109.187C235.314 171.697 188.381 226.104 125.873 230.727C63.3261 235.351 8.87937 188.381 4.28145 125.833C-0.316488 63.2843 46.6766 8.8578 109.227 4.28696Z" fill="white"/>
<path d="M117.82 144.526C116.836 145.569 115.424 146.524 114.374 147.621C109.836 152.356 105.079 156.894 100.464 161.543C96.9524 165.115 93.4125 168.659 89.8444 172.174C84.58 177.418 80.4517 182.256 72.2455 182.308C67.1407 182.23 62.3315 180.754 58.5519 177.176C52.3325 171.29 51.1969 160.434 55.8109 153.261C57.6505 150.401 62.1552 146.402 64.659 143.898C71.5954 136.96 78.5389 129.997 85.5154 123.099C88.2852 120.381 90.109 116.703 87.0255 113.455C84.4954 110.79 81.8312 108.284 79.228 105.691C74.0755 100.479 68.8963 95.2943 63.6905 90.1358C57.6406 84.1233 53.174 80.9669 52.9278 71.7588C52.52 56.4936 68.9973 47.9384 81.7229 55.455C84.5865 57.1463 87.4136 60.3789 89.7659 62.7439C92.7086 65.6568 95.6278 68.5936 98.5231 71.5536C103.798 76.873 109.271 82.0992 114.496 87.4969C115.594 88.6317 116.881 89.5518 118.025 90.6627C118.774 91.849 121.68 94.5733 122.755 95.6989C126.531 99.6533 131.057 103.67 134.551 107.844C141.482 124.15 131.475 130.444 121.159 140.776C120.279 141.657 118.344 143.488 117.82 144.526Z" fill="#08E53A"/>
<path d="M134.551 107.844C137.306 109.904 144.712 118.324 147.065 119.367C150.128 123.229 153.858 126.671 157.366 130.164L171.282 144.103C174.135 146.955 178.979 151.189 180.751 154.622C187.813 168.302 177.131 183.965 161.652 182.144C153.56 181.191 149.474 175.789 143.984 170.368L128.876 155.328C125.277 151.693 121.725 147.801 117.82 144.526C118.344 143.488 120.279 141.657 121.159 140.776C131.475 130.444 141.482 124.15 134.551 107.844Z" fill="#0BB708"/>
<path d="M146.791 61.9661C151.577 56.7126 155.834 53.0095 163.312 52.6969C180.543 51.9765 189.569 72.5413 177.467 84.7783C176.174 86.085 174.839 87.4397 173.439 88.6365L156.423 105.769C153.223 108.94 146.973 113.553 147.019 118.089C147.024 118.515 147.039 118.941 147.065 119.367C144.712 118.324 137.306 109.904 134.551 107.844C131.057 103.67 126.531 99.6533 122.755 95.6989C121.68 94.5733 118.774 91.849 118.025 90.6627C119.816 88.6535 122.982 85.7 125.01 83.6221C132.196 76.3289 139.456 69.1097 146.791 61.9661Z" fill="#037A5B"/>
<path d="M146.791 61.9661C151.577 56.7126 155.834 53.0095 163.312 52.6969C180.543 51.9765 189.569 72.5413 177.467 84.7783C176.174 86.085 174.839 87.4397 173.439 88.6365C172.208 88.9438 170.808 89.2135 169.609 89.552C158.686 92.6361 146.626 85.6967 145.338 74.0778C144.831 69.5116 145.897 66.4731 146.791 61.9661Z" fill="#08E53A"/>
</svg>
