<svg width="143" height="136" viewBox="0 0 143 136" fill="none" xmlns="http://www.w3.org/2000/svg">
<mask id="mask0_2097_2538" style="mask-type:alpha" maskUnits="userSpaceOnUse" x="4" y="0" width="136" height="136">
<circle cx="72" cy="68" r="67" fill="url(#paint0_linear_2097_2538)" stroke="#1D1C1F" stroke-width="2"/>
</mask>
<g mask="url(#mask0_2097_2538)">
<circle cx="72" cy="68" r="67" fill="#1D1C1F" stroke="#1D1C1F" stroke-width="2"/>
<circle cx="72" cy="68" r="61" fill="url(#paint1_linear_2097_2538)"/>
<circle cx="72" cy="68" r="37" fill="#A081F5"/>
<circle cx="72" cy="68" r="65.5" stroke="#1D1C1F" stroke-width="5"/>
<mask id="path-6-outside-1_2097_2538" maskUnits="userSpaceOnUse" x="6.05151" y="54.103" width="132" height="39" fill="black">
<rect fill="white" x="6.05151" y="54.103" width="132" height="39"/>
<path d="M114.643 57.103C117.655 57.1031 120.399 57.5202 122.874 58.354C125.379 59.1581 127.541 60.3044 129.36 61.7935C131.179 63.2527 132.581 64.9798 133.565 66.9751C134.579 68.9406 135.086 71.0706 135.086 73.3638C135.086 75.7162 134.579 77.8901 133.565 79.8853C132.581 81.8508 131.179 83.5788 129.36 85.0679C127.541 86.5271 125.379 87.6735 122.874 88.5073C120.399 89.3114 117.67 89.7133 114.688 89.7134C111.647 89.7134 108.873 89.3113 106.368 88.5073C103.863 87.6735 101.701 86.527 99.8816 85.0679C98.0625 83.5788 96.6606 81.8508 95.6765 79.8853C94.9185 78.3483 94.4532 76.7142 94.2791 74.9829C93.3141 76.0868 92.1155 76.992 90.6814 77.6968C90.4754 77.7996 90.2651 77.8954 90.0525 77.9868L98.5984 89.2671H87.6394L79.9578 79.0815H74.6218V89.2671H65.5857V68.7251L56.3591 89.2671H47.6365L36.8328 65.814H18.3113V69.7896H37.0544V77.1157H18.3113V81.4487H39.5144V89.2671H9.05151V57.9966H42.8503L48.7546 71.3091C48.9336 71.726 49.1875 72.2918 49.5154 73.0063C49.8732 73.721 50.246 74.5546 50.6335 75.5073C51.051 76.4305 51.4539 77.4284 51.8416 78.5005C51.8985 78.658 51.9516 78.8176 52.0066 78.9771C52.144 78.6009 52.2826 78.2337 52.4226 77.8755C52.9296 76.6247 53.422 75.4632 53.8992 74.3911C54.4061 73.319 54.8382 72.3212 55.196 71.3979L61.0115 57.9966H83.658C86.64 57.9966 89.0853 58.3986 90.9939 59.2026C92.9323 59.9769 94.3643 61.1384 95.2888 62.687C95.8328 63.5528 96.221 64.5302 96.4548 65.6187C97.3758 64.1865 98.5323 62.9111 99.9255 61.7935C101.745 60.3044 103.893 59.1581 106.368 58.354C108.873 57.5202 111.631 57.103 114.643 57.103ZM114.643 66.0376C113.093 66.0376 111.661 66.2305 110.348 66.6177C109.066 66.975 107.948 67.4963 106.994 68.1812C106.04 68.8363 105.308 69.611 104.802 70.5044C104.295 71.3977 104.042 72.3656 104.042 73.4077C104.042 74.4501 104.295 75.4186 104.802 76.312C105.308 77.2054 106.04 77.9942 106.994 78.6792C107.948 79.3343 109.066 79.8555 110.348 80.2427C111.661 80.6 113.093 80.7788 114.643 80.7788C116.194 80.7788 117.61 80.6 118.892 80.2427C120.204 79.8555 121.323 79.3344 122.248 78.6792C123.202 77.9943 123.932 77.2053 124.439 76.312C124.976 75.4186 125.245 74.4501 125.245 73.4077C125.245 72.3656 124.976 71.3977 124.439 70.5044C123.932 69.6111 123.202 68.8363 122.248 68.1812C121.323 67.4962 120.204 66.975 118.892 66.6177C117.61 66.2306 116.194 66.0376 114.643 66.0376ZM74.6218 72.3804H83.1208C83.8366 72.3804 84.4932 72.2612 85.0896 72.0229C85.6859 71.7847 86.1634 71.4129 86.5212 70.9067C86.9089 70.4005 87.1023 69.76 87.1023 68.9858C87.1023 68.1819 86.9088 67.5414 86.5212 67.0649C86.1634 66.5587 85.6709 66.186 85.0447 65.9478C84.4185 65.7095 83.7325 65.5903 82.9871 65.5903H74.6218V72.3804Z"/>
</mask>
<path d="M114.643 57.103C117.655 57.1031 120.399 57.5202 122.874 58.354C125.379 59.1581 127.541 60.3044 129.36 61.7935C131.179 63.2527 132.581 64.9798 133.565 66.9751C134.579 68.9406 135.086 71.0706 135.086 73.3638C135.086 75.7162 134.579 77.8901 133.565 79.8853C132.581 81.8508 131.179 83.5788 129.36 85.0679C127.541 86.5271 125.379 87.6735 122.874 88.5073C120.399 89.3114 117.67 89.7133 114.688 89.7134C111.647 89.7134 108.873 89.3113 106.368 88.5073C103.863 87.6735 101.701 86.527 99.8816 85.0679C98.0625 83.5788 96.6606 81.8508 95.6765 79.8853C94.9185 78.3483 94.4532 76.7142 94.2791 74.9829C93.3141 76.0868 92.1155 76.992 90.6814 77.6968C90.4754 77.7996 90.2651 77.8954 90.0525 77.9868L98.5984 89.2671H87.6394L79.9578 79.0815H74.6218V89.2671H65.5857V68.7251L56.3591 89.2671H47.6365L36.8328 65.814H18.3113V69.7896H37.0544V77.1157H18.3113V81.4487H39.5144V89.2671H9.05151V57.9966H42.8503L48.7546 71.3091C48.9336 71.726 49.1875 72.2918 49.5154 73.0063C49.8732 73.721 50.246 74.5546 50.6335 75.5073C51.051 76.4305 51.4539 77.4284 51.8416 78.5005C51.8985 78.658 51.9516 78.8176 52.0066 78.9771C52.144 78.6009 52.2826 78.2337 52.4226 77.8755C52.9296 76.6247 53.422 75.4632 53.8992 74.3911C54.4061 73.319 54.8382 72.3212 55.196 71.3979L61.0115 57.9966H83.658C86.64 57.9966 89.0853 58.3986 90.9939 59.2026C92.9323 59.9769 94.3643 61.1384 95.2888 62.687C95.8328 63.5528 96.221 64.5302 96.4548 65.6187C97.3758 64.1865 98.5323 62.9111 99.9255 61.7935C101.745 60.3044 103.893 59.1581 106.368 58.354C108.873 57.5202 111.631 57.103 114.643 57.103ZM114.643 66.0376C113.093 66.0376 111.661 66.2305 110.348 66.6177C109.066 66.975 107.948 67.4963 106.994 68.1812C106.04 68.8363 105.308 69.611 104.802 70.5044C104.295 71.3977 104.042 72.3656 104.042 73.4077C104.042 74.4501 104.295 75.4186 104.802 76.312C105.308 77.2054 106.04 77.9942 106.994 78.6792C107.948 79.3343 109.066 79.8555 110.348 80.2427C111.661 80.6 113.093 80.7788 114.643 80.7788C116.194 80.7788 117.61 80.6 118.892 80.2427C120.204 79.8555 121.323 79.3344 122.248 78.6792C123.202 77.9943 123.932 77.2053 124.439 76.312C124.976 75.4186 125.245 74.4501 125.245 73.4077C125.245 72.3656 124.976 71.3977 124.439 70.5044C123.932 69.6111 123.202 68.8363 122.248 68.1812C121.323 67.4962 120.204 66.975 118.892 66.6177C117.61 66.2306 116.194 66.0376 114.643 66.0376ZM74.6218 72.3804H83.1208C83.8366 72.3804 84.4932 72.2612 85.0896 72.0229C85.6859 71.7847 86.1634 71.4129 86.5212 70.9067C86.9089 70.4005 87.1023 69.76 87.1023 68.9858C87.1023 68.1819 86.9088 67.5414 86.5212 67.0649C86.1634 66.5587 85.6709 66.186 85.0447 65.9478C84.4185 65.7095 83.7325 65.5903 82.9871 65.5903H74.6218V72.3804Z" fill="#1D1C1F"/>
<path d="M114.643 57.103L114.643 54.4589H114.643V57.103ZM122.874 58.354L122.03 60.8597L122.048 60.8658L122.066 60.8716L122.874 58.354ZM129.36 61.7935L127.685 63.8395L127.695 63.8478L127.706 63.8559L129.36 61.7935ZM133.565 66.9751L131.194 68.1447L131.204 68.1661L131.215 68.1873L133.565 66.9751ZM135.086 73.3638L137.73 73.3638V73.3638H135.086ZM133.565 79.8853L131.208 78.6875L131.204 78.6945L131.201 78.7015L133.565 79.8853ZM129.36 85.0679L131.015 87.1304L131.025 87.1222L131.035 87.1139L129.36 85.0679ZM122.874 88.5073L123.691 91.022L123.7 91.0191L123.709 91.0161L122.874 88.5073ZM114.688 89.7134V92.3575H114.688L114.688 89.7134ZM106.368 88.5073L105.533 91.0161L105.546 91.0206L105.56 91.0249L106.368 88.5073ZM99.8816 85.0679L98.2068 87.1139L98.2169 87.1222L98.2272 87.1304L99.8816 85.0679ZM95.6765 79.8853L93.3052 81.0548L93.3087 81.0619L93.3122 81.069L95.6765 79.8853ZM94.2791 74.9829L96.9099 74.7183L96.2999 68.6536L92.2883 73.2427L94.2791 74.9829ZM90.6814 77.6968L89.5152 75.3238L89.5077 75.3275L89.5002 75.3312L90.6814 77.6968ZM90.0525 77.9868L89.0084 75.5576L85.9053 76.8913L87.9449 79.5835L90.0525 77.9868ZM98.5984 89.2671V91.9112H103.919L100.706 87.6704L98.5984 89.2671ZM87.6394 89.2671L85.5284 90.8592L86.3218 91.9112H87.6394V89.2671ZM79.9578 79.0815L82.0688 77.4895L81.2754 76.4375H79.9578V79.0815ZM74.6218 79.0815V76.4375H71.9777V79.0815H74.6218ZM74.6218 89.2671V91.9112H77.2659V89.2671H74.6218ZM65.5857 89.2671H62.9416V91.9112H65.5857V89.2671ZM65.5857 68.7251H68.2298L63.1737 67.6418L65.5857 68.7251ZM56.3591 89.2671V91.9112H58.0701L58.7711 90.3504L56.3591 89.2671ZM47.6365 89.2671L45.2349 90.3734L45.9433 91.9112H47.6365V89.2671ZM36.8328 65.814L39.2343 64.7077L38.5259 63.1699H36.8328V65.814ZM18.3113 65.814V63.1699H15.6672V65.814H18.3113ZM18.3113 69.7896H15.6672V72.4336H18.3113V69.7896ZM37.0544 69.7896H39.6985V67.1455H37.0544V69.7896ZM37.0544 77.1157V79.7598H39.6985V77.1157H37.0544ZM18.3113 77.1157V74.4716H15.6672V77.1157H18.3113ZM18.3113 81.4487H15.6672V84.0928H18.3113V81.4487ZM39.5144 81.4487H42.1585V78.8047H39.5144V81.4487ZM39.5144 89.2671V91.9112H42.1585V89.2671H39.5144ZM9.05151 89.2671H6.40743V91.9112H9.05151V89.2671ZM9.05151 57.9966V55.3525H6.40743V57.9966H9.05151ZM42.8503 57.9966L45.2674 56.9246L44.5701 55.3525H42.8503V57.9966ZM48.7546 71.3091L51.1844 70.2663L51.1781 70.2517L51.1717 70.2371L48.7546 71.3091ZM49.5154 73.0063L47.1123 74.1093L47.131 74.15L47.1511 74.1901L49.5154 73.0063ZM50.6335 75.5073L48.1844 76.5037L48.2035 76.5506L48.2244 76.5968L50.6335 75.5073ZM51.8416 78.5005L54.3281 77.6014L54.3281 77.6014L51.8416 78.5005ZM52.0066 78.9771L49.5072 79.8396L51.9358 86.8766L54.4901 79.8843L52.0066 78.9771ZM52.4226 77.8755L49.9722 76.8823L49.9659 76.8977L49.9599 76.9131L52.4226 77.8755ZM53.8992 74.3911L51.5089 73.2608L51.4959 73.2883L51.4835 73.316L53.8992 74.3911ZM55.196 71.3979L52.7705 70.3454L52.7496 70.3935L52.7307 70.4423L55.196 71.3979ZM61.0115 57.9966V55.3525H59.2766L58.5859 56.944L61.0115 57.9966ZM83.658 57.9966V55.3525V57.9966ZM90.9939 59.2026L89.9674 61.6393L89.9901 61.6489L90.0131 61.6581L90.9939 59.2026ZM95.2888 62.687L93.0185 64.0423L93.0339 64.0682L93.0499 64.0936L95.2888 62.687ZM96.4548 65.6187L93.8698 66.1741L95.2151 72.4352L98.6788 67.0487L96.4548 65.6187ZM99.9255 61.7935L101.58 63.8559L101.59 63.8478L101.6 63.8395L99.9255 61.7935ZM106.368 58.354L107.185 60.8687L107.194 60.8658L107.203 60.8628L106.368 58.354ZM114.643 66.0376L114.643 63.3935H114.643V66.0376ZM110.348 66.6177L111.058 69.1647L111.077 69.1593L111.097 69.1537L110.348 66.6177ZM106.994 68.1812L108.49 70.3609L108.513 70.3453L108.536 70.3292L106.994 68.1812ZM104.802 70.5044L102.502 69.1995L102.502 69.1995L104.802 70.5044ZM104.042 73.4077L101.398 73.4075V73.4077H104.042ZM104.802 76.312L107.101 75.0071L104.802 76.312ZM106.994 78.6792L105.452 80.8272L105.475 80.8433L105.497 80.859L106.994 78.6792ZM110.348 80.2427L109.584 82.7739L109.619 82.7843L109.654 82.7938L110.348 80.2427ZM114.643 80.7788V83.4229H114.643L114.643 80.7788ZM118.892 80.2427L119.602 82.7897L119.621 82.7843L119.641 82.7787L118.892 80.2427ZM122.248 78.6792L123.777 80.8365L123.783 80.8318L123.79 80.8272L122.248 78.6792ZM124.439 76.312L122.173 74.9503L122.156 74.9784L122.14 75.007L124.439 76.312ZM125.245 73.4077H127.889V73.4075L125.245 73.4077ZM124.439 70.5044L122.14 71.8094L122.156 71.838L122.173 71.8661L124.439 70.5044ZM122.248 68.1812L120.674 70.3057L120.712 70.334L120.751 70.3609L122.248 68.1812ZM118.892 66.6177L118.128 69.1489L118.163 69.1594L118.198 69.1688L118.892 66.6177ZM74.6218 72.3804H71.9777V75.0245H74.6218V72.3804ZM85.0896 72.0229L86.0704 74.4784L86.0707 74.4783L85.0896 72.0229ZM86.5212 70.9067L84.4219 69.2993L84.3912 69.3394L84.3621 69.3806L86.5212 70.9067ZM87.1023 68.9858L89.7464 68.9859V68.9858H87.1023ZM86.5212 67.0649L84.3621 68.5911L84.4136 68.664L84.47 68.7333L86.5212 67.0649ZM85.0447 65.9478L85.9848 63.4765L85.9848 63.4765L85.0447 65.9478ZM82.9871 65.5903L82.9871 62.9463H82.9871V65.5903ZM74.6218 65.5903V62.9463H71.9777V65.5903H74.6218ZM114.643 57.103L114.643 59.7471C117.411 59.7471 119.864 60.1303 122.03 60.8597L122.874 58.354L123.718 55.8483C120.933 54.91 117.899 54.459 114.643 54.4589L114.643 57.103ZM122.874 58.354L122.066 60.8716C124.292 61.5863 126.152 62.5843 127.685 63.8395L129.36 61.7935L131.035 59.7474C128.93 58.0245 126.465 56.7298 123.682 55.8364L122.874 58.354ZM129.36 61.7935L127.706 63.8559C129.238 65.0856 130.389 66.5128 131.194 68.1447L133.565 66.9751L135.937 65.8055C134.773 63.4469 133.12 61.4198 131.015 59.731L129.36 61.7935ZM133.565 66.9751L131.215 68.1873C132.028 69.7636 132.442 71.4758 132.442 73.3638H135.086H137.73C137.73 70.6654 137.13 68.1177 135.915 65.7629L133.565 66.9751ZM135.086 73.3638L132.442 73.3637C132.442 75.3221 132.023 77.0827 131.208 78.6875L133.565 79.8853L135.922 81.083C137.135 78.6975 137.73 76.1104 137.73 73.3638L135.086 73.3638ZM133.565 79.8853L131.201 78.7015C130.395 80.3118 129.237 81.752 127.685 83.0218L129.36 85.0679L131.035 87.1139C133.122 85.4056 134.767 83.3898 135.929 81.069L133.565 79.8853ZM129.36 85.0679L127.706 83.0054C126.161 84.2442 124.285 85.2507 122.039 85.9986L122.874 88.5073L123.709 91.0161C126.472 90.0962 128.921 88.8099 131.015 87.1304L129.36 85.0679ZM122.874 88.5073L122.057 85.9926C119.881 86.6995 117.433 87.0693 114.688 87.0693L114.688 89.7134L114.688 92.3575C117.908 92.3574 120.916 91.9232 123.691 91.022L122.874 88.5073ZM114.688 89.7134V87.0693C111.879 87.0693 109.383 86.698 107.176 85.9897L106.368 88.5073L105.56 91.0249C108.363 91.9246 111.414 92.3575 114.688 92.3575V89.7134ZM106.368 88.5073L107.203 85.9986C104.957 85.2508 103.08 84.2441 101.536 83.0053L99.8816 85.0679L98.2272 87.1304C100.321 88.8098 102.77 90.0962 105.533 91.0161L106.368 88.5073ZM99.8816 85.0679L101.556 83.0218C100.005 81.752 98.8471 80.3118 98.0408 78.7015L95.6765 79.8853L93.3122 81.069C94.4742 83.3898 96.1199 85.4056 98.2068 87.1139L99.8816 85.0679ZM95.6765 79.8853L98.0479 78.7157C97.4323 77.4676 97.0529 76.1406 96.9099 74.7183L94.2791 74.9829L91.6482 75.2475C91.8535 77.2879 92.4047 79.2291 93.3052 81.0548L95.6765 79.8853ZM94.2791 74.9829L92.2883 73.2427C91.5727 74.0615 90.6623 74.7601 89.5152 75.3238L90.6814 77.6968L91.8475 80.0698C93.5687 79.224 95.0556 78.1121 96.2698 76.7231L94.2791 74.9829ZM90.6814 77.6968L89.5002 75.3312C89.3499 75.4063 89.187 75.4808 89.0084 75.5576L90.0525 77.9868L91.0965 80.416C91.3433 80.31 91.601 80.193 91.8626 80.0624L90.6814 77.6968ZM90.0525 77.9868L87.9449 79.5835L96.4908 90.8638L98.5984 89.2671L100.706 87.6704L92.16 76.3901L90.0525 77.9868ZM98.5984 89.2671V86.623H87.6394V89.2671V91.9112H98.5984V89.2671ZM87.6394 89.2671L89.7504 87.675L82.0688 77.4895L79.9578 79.0815L77.8467 80.6736L85.5284 90.8592L87.6394 89.2671ZM79.9578 79.0815V76.4375H74.6218V79.0815V81.7256H79.9578V79.0815ZM74.6218 79.0815H71.9777V89.2671H74.6218H77.2659V79.0815H74.6218ZM74.6218 89.2671V86.623H65.5857V89.2671V91.9112H74.6218V89.2671ZM65.5857 89.2671H68.2298V68.7251H65.5857H62.9416V89.2671H65.5857ZM65.5857 68.7251L63.1737 67.6418L53.9472 88.1837L56.3591 89.2671L58.7711 90.3504L67.9976 69.8084L65.5857 68.7251ZM56.3591 89.2671V86.623H47.6365V89.2671V91.9112H56.3591V89.2671ZM47.6365 89.2671L50.038 88.1608L39.2343 64.7077L36.8328 65.814L34.4312 66.9202L45.2349 90.3734L47.6365 89.2671ZM36.8328 65.814V63.1699H18.3113V65.814V68.458H36.8328V65.814ZM18.3113 65.814H15.6672V69.7896H18.3113H20.9554V65.814H18.3113ZM18.3113 69.7896V72.4336H37.0544V69.7896V67.1455H18.3113V69.7896ZM37.0544 69.7896H34.4104V77.1157H37.0544H39.6985V69.7896H37.0544ZM37.0544 77.1157V74.4716H18.3113V77.1157V79.7598H37.0544V77.1157ZM18.3113 77.1157H15.6672V81.4487H18.3113H20.9554V77.1157H18.3113ZM18.3113 81.4487V84.0928H39.5144V81.4487V78.8047H18.3113V81.4487ZM39.5144 81.4487H36.8703V89.2671H39.5144H42.1585V81.4487H39.5144ZM39.5144 89.2671V86.623H9.05151V89.2671V91.9112H39.5144V89.2671ZM9.05151 89.2671H11.6956V57.9966H9.05151H6.40743V89.2671H9.05151ZM9.05151 57.9966V60.6407H42.8503V57.9966V55.3525H9.05151V57.9966ZM42.8503 57.9966L40.4333 59.0686L46.3376 72.3811L48.7546 71.3091L51.1717 70.2371L45.2674 56.9246L42.8503 57.9966ZM48.7546 71.3091L46.3249 72.3519C46.5168 72.799 46.7813 73.3881 47.1123 74.1093L49.5154 73.0063L51.9184 71.9034C51.5936 71.1955 51.3504 70.653 51.1844 70.2663L48.7546 71.3091ZM49.5154 73.0063L47.1511 74.1901C47.471 74.8291 47.8158 75.5978 48.1844 76.5037L50.6335 75.5073L53.0827 74.511C52.6761 73.5114 52.2753 72.6128 51.8797 71.8226L49.5154 73.0063ZM50.6335 75.5073L48.2244 76.5968C48.6105 77.4506 48.9879 78.3844 49.355 79.3996L51.8416 78.5005L54.3281 77.6014C53.9198 76.4724 53.4916 75.4104 53.0427 74.4178L50.6335 75.5073ZM51.8416 78.5005L49.355 79.3996C49.4036 79.5338 49.4387 79.6411 49.5072 79.8396L52.0066 78.9771L54.506 78.1145C54.4645 77.9941 54.3935 77.7822 54.3281 77.6014L51.8416 78.5005ZM52.0066 78.9771L54.4901 79.8843C54.6212 79.5255 54.7529 79.1767 54.8853 78.8379L52.4226 77.8755L49.9599 76.9131C49.8124 77.2907 49.6668 77.6763 49.523 78.0698L52.0066 78.9771ZM52.4226 77.8755L54.8731 78.8687C55.3703 77.6419 55.8512 76.508 56.3148 75.4662L53.8992 74.3911L51.4835 73.316C50.9929 74.4185 50.4889 75.6075 49.9722 76.8823L52.4226 77.8755ZM53.8992 74.3911L56.2895 75.5214C56.8188 74.4021 57.2769 73.3455 57.6614 72.3536L55.196 71.3979L52.7307 70.4423C52.3995 71.2968 51.9935 72.2359 51.5089 73.2608L53.8992 74.3911ZM55.196 71.3979L57.6216 72.4505L63.437 59.0491L61.0115 57.9966L58.5859 56.944L52.7705 70.3454L55.196 71.3979ZM61.0115 57.9966V60.6407H83.658V57.9966V55.3525H61.0115V57.9966ZM83.658 57.9966V60.6407C86.4302 60.6407 88.4935 61.0184 89.9674 61.6393L90.9939 59.2026L92.0204 56.766C89.6771 55.7788 86.8499 55.3525 83.658 55.3525V57.9966ZM90.9939 59.2026L90.0131 61.6581C91.5013 62.2526 92.437 63.0682 93.0185 64.0423L95.2888 62.687L97.5591 61.3317C96.2917 59.2085 94.3633 57.7013 91.9747 56.7472L90.9939 59.2026ZM95.2888 62.687L93.0499 64.0936C93.4151 64.6748 93.6947 65.3593 93.8698 66.1741L96.4548 65.6187L99.0399 65.0632C98.7473 63.7012 98.2505 62.4309 97.5277 61.2804L95.2888 62.687ZM96.4548 65.6187L98.6788 67.0487C99.4382 65.8677 100.399 64.8033 101.58 63.8559L99.9255 61.7935L98.271 59.731C96.6655 61.019 95.3133 62.5053 94.2309 64.1886L96.4548 65.6187ZM99.9255 61.7935L101.6 63.8395C103.139 62.5801 104.988 61.5823 107.185 60.8687L106.368 58.354L105.551 55.8393C102.797 56.7339 100.35 58.0287 98.2507 59.7474L99.9255 61.7935ZM106.368 58.354L107.203 60.8628C109.404 60.1302 111.876 59.7471 114.643 59.7471V57.103V54.4589C111.387 54.4589 108.342 54.9102 105.533 55.8453L106.368 58.354ZM114.643 66.0376V63.3935C112.873 63.3935 111.186 63.6138 109.6 64.0817L110.348 66.6177L111.097 69.1537C112.135 68.8473 113.312 68.6817 114.643 68.6817V66.0376ZM110.348 66.6177L109.639 64.0707C108.097 64.5003 106.689 65.1453 105.452 66.0331L106.994 68.1812L108.536 70.3292C109.207 69.8473 110.036 69.4497 111.058 69.1647L110.348 66.6177ZM106.994 68.1812L105.497 66.0014C104.255 66.8544 103.231 67.9152 102.502 69.1995L104.802 70.5044L107.101 71.8093C107.386 71.3068 107.824 70.8183 108.49 70.3609L106.994 68.1812ZM104.802 70.5044L102.502 69.1995C101.765 70.4977 101.398 71.9163 101.398 73.4075L104.042 73.4077L106.686 73.4079C106.686 72.8148 106.824 72.2976 107.101 71.8093L104.802 70.5044ZM104.042 73.4077H101.398C101.398 74.8989 101.765 76.3183 102.502 77.6169L104.802 76.312L107.101 75.0071C106.824 74.5189 106.686 74.0012 106.686 73.4077H104.042ZM104.802 76.312L102.502 77.6169C103.223 78.8883 104.233 79.9519 105.452 80.8272L106.994 78.6792L108.536 76.5312C107.847 76.0365 107.394 75.5226 107.101 75.0071L104.802 76.312ZM106.994 78.6792L105.497 80.859C106.708 81.6902 108.081 82.3201 109.584 82.7739L110.348 80.2427L111.113 77.7115C110.051 77.391 109.188 76.9784 108.49 76.4994L106.994 78.6792ZM110.348 80.2427L109.654 82.7938C111.221 83.2208 112.89 83.4229 114.643 83.4229V80.7788V78.1347C113.295 78.1347 112.1 77.9793 111.043 77.6915L110.348 80.2427ZM114.643 80.7788L114.643 83.4229C116.396 83.4229 118.055 83.2209 119.602 82.7897L118.892 80.2427L118.183 77.6956C117.166 77.979 115.992 78.1347 114.643 78.1347L114.643 80.7788ZM118.892 80.2427L119.641 82.7787C121.176 82.3258 122.571 81.691 123.777 80.8365L122.248 78.6792L120.719 76.5219C120.076 76.9778 119.233 77.3853 118.144 77.7067L118.892 80.2427ZM122.248 78.6792L123.79 80.8272C125.01 79.9513 126.018 78.8872 126.739 77.617L124.439 76.312L122.14 75.007C121.847 75.5233 121.394 76.0374 120.706 76.5312L122.248 78.6792ZM124.439 76.312L126.706 77.6737C127.489 76.3695 127.889 74.9303 127.889 73.4077H125.245H122.601C122.601 73.9698 122.463 74.4677 122.173 74.9503L124.439 76.312ZM125.245 73.4077L127.889 73.4075C127.889 71.8849 127.489 70.4465 126.706 69.1427L124.439 70.5044L122.173 71.8661C122.463 72.3489 122.601 72.8462 122.601 73.4079L125.245 73.4077ZM124.439 70.5044L126.739 69.1994C126.011 67.9163 124.988 66.8551 123.744 66.0014L122.248 68.1812L120.751 70.3609C121.416 70.8175 121.854 71.3058 122.14 71.8094L124.439 70.5044ZM122.248 68.1812L123.822 66.0567C122.59 65.1438 121.159 64.4947 119.587 64.0665L118.892 66.6177L118.198 69.1688C119.249 69.4553 120.057 69.8486 120.674 70.3057L122.248 68.1812ZM118.892 66.6177L119.656 64.0864C118.09 63.6137 116.412 63.3935 114.643 63.3935L114.643 66.0376L114.643 68.6817C115.975 68.6817 117.13 68.8476 118.128 69.1489L118.892 66.6177ZM74.6218 72.3804V75.0245H83.1208V72.3804V69.7363H74.6218V72.3804ZM83.1208 72.3804V75.0245C84.134 75.0245 85.1282 74.8548 86.0704 74.4784L85.0896 72.0229L84.1088 69.5675C83.8582 69.6676 83.5391 69.7363 83.1208 69.7363V72.3804ZM85.0896 72.0229L86.0707 74.4783C87.1212 74.0585 88.0157 73.3732 88.6804 72.4329L86.5212 70.9067L84.3621 69.3806C84.3112 69.4526 84.2505 69.5109 84.1085 69.5676L85.0896 72.0229ZM86.5212 70.9067L88.6206 72.5142C89.4328 71.4535 89.7463 70.2119 89.7464 68.9859L87.1023 68.9858L84.4582 68.9858C84.4582 69.1537 84.4372 69.2451 84.4262 69.2815C84.4167 69.3128 84.4128 69.3112 84.4219 69.2993L86.5212 70.9067ZM87.1023 68.9858H89.7464C89.7464 67.7648 89.4486 66.4737 88.5725 65.3966L86.5212 67.0649L84.47 68.7333C84.4278 68.6815 84.42 68.6473 84.4262 68.6679C84.4346 68.6957 84.4582 68.7925 84.4582 68.9858H87.1023ZM86.5212 67.0649L88.6804 65.5388C87.9946 64.5686 87.061 63.8859 85.9848 63.4765L85.0447 65.9478L84.1045 68.419C84.2809 68.4861 84.3321 68.5488 84.3621 68.5911L86.5212 67.0649ZM85.0447 65.9478L85.9848 63.4765C85.0265 63.1119 84.0179 62.9463 82.9871 62.9463L82.9871 65.5903L82.987 68.2344C83.4471 68.2344 83.8104 68.3072 84.1046 68.4191L85.0447 65.9478ZM82.9871 65.5903V62.9463H74.6218V65.5903V68.2344H82.9871V65.5903ZM74.6218 65.5903H71.9777V72.3804H74.6218H77.2659V65.5903H74.6218Z" fill="#1D1C1F" mask="url(#path-6-outside-1_2097_2538)"/>
<mask id="path-8-outside-2_2097_2538" maskUnits="userSpaceOnUse" x="5.70776" y="48.0225" width="132" height="39" fill="black">
<rect fill="white" x="5.70776" y="48.0225" width="132" height="39"/>
<path d="M114.3 51.0225C117.311 51.0225 120.055 51.4396 122.53 52.2734C125.035 53.0775 127.197 54.2238 129.016 55.7129C130.835 57.1721 132.237 58.8993 133.221 60.8945C134.235 62.8601 134.742 64.9901 134.742 67.2832C134.742 69.6357 134.235 71.8095 133.221 73.8047C132.237 75.7702 130.835 77.4982 129.016 78.9873C127.197 80.4465 125.035 81.5929 122.53 82.4268C120.055 83.2308 117.326 83.6328 114.344 83.6328C111.303 83.6328 108.529 83.2308 106.024 82.4268C103.519 81.5929 101.357 80.4464 99.5378 78.9873C97.7187 77.4982 96.3169 75.7702 95.3328 73.8047C94.5748 72.2677 94.1094 70.6336 93.9353 68.9023C92.9704 70.0062 91.7718 70.9115 90.3376 71.6162C90.1317 71.7191 89.9214 71.8149 89.7087 71.9062L98.2546 83.1865H87.2957L79.614 73.001H74.2781V83.1865H65.2419V62.6445L56.0154 83.1865H47.2927L36.489 59.7334H17.9675V63.709H36.7107V71.0352H17.9675V75.3682H39.1707V83.1865H8.70776V51.916H42.5066L48.4109 65.2285C48.5898 65.6454 48.8437 66.2113 49.1716 66.9258C49.5294 67.6404 49.9022 68.474 50.2898 69.4268C50.7073 70.3499 51.1101 71.3478 51.4978 72.4199C51.5548 72.5774 51.6078 72.737 51.6628 72.8965C51.8003 72.5203 51.9389 72.1531 52.0789 71.7949C52.5858 70.5441 53.0783 69.3827 53.5554 68.3105C54.0624 67.2384 54.4944 66.2406 54.8523 65.3174L60.6677 51.916H83.3142C86.2963 51.916 88.7416 52.318 90.6501 53.1221C92.5886 53.8964 94.0206 55.0578 94.9451 56.6064C95.489 57.4723 95.8772 58.4497 96.1111 59.5381C97.032 58.106 98.1885 56.8306 99.5818 55.7129C101.401 54.2238 103.549 53.0775 106.024 52.2734C108.529 51.4396 111.288 51.0225 114.3 51.0225ZM114.3 59.957C112.749 59.957 111.317 60.15 110.005 60.5371C108.723 60.8944 107.604 61.4158 106.65 62.1006C105.696 62.7558 104.965 63.5304 104.458 64.4238C103.951 65.3171 103.698 66.285 103.698 67.3271C103.698 68.3695 103.951 69.338 104.458 70.2314C104.965 71.1249 105.696 71.9137 106.65 72.5986C107.604 73.2538 108.722 73.775 110.005 74.1621C111.317 74.5195 112.749 74.6982 114.3 74.6982C115.85 74.6982 117.266 74.5194 118.549 74.1621C119.861 73.775 120.98 73.2538 121.904 72.5986C122.858 71.9138 123.589 71.1247 124.095 70.2314C124.632 69.338 124.901 68.3695 124.901 67.3271C124.901 66.285 124.632 65.3171 124.095 64.4238C123.588 63.5305 122.858 62.7557 121.904 62.1006C120.98 61.4156 119.861 60.8945 118.549 60.5371C117.266 60.1501 115.85 59.9571 114.3 59.957ZM74.2781 66.2998H82.7771C83.4928 66.2998 84.1494 66.1806 84.7458 65.9424C85.3421 65.7041 85.8197 65.3324 86.1775 64.8262C86.5651 64.3199 86.7585 63.6795 86.7585 62.9053C86.7585 62.1013 86.565 61.4608 86.1775 60.9844C85.8196 60.4781 85.3272 60.1054 84.7009 59.8672C84.0747 59.629 83.3888 59.5098 82.6433 59.5098H74.2781V66.2998Z"/>
</mask>
<path d="M114.3 51.0225C117.311 51.0225 120.055 51.4396 122.53 52.2734C125.035 53.0775 127.197 54.2238 129.016 55.7129C130.835 57.1721 132.237 58.8993 133.221 60.8945C134.235 62.8601 134.742 64.9901 134.742 67.2832C134.742 69.6357 134.235 71.8095 133.221 73.8047C132.237 75.7702 130.835 77.4982 129.016 78.9873C127.197 80.4465 125.035 81.5929 122.53 82.4268C120.055 83.2308 117.326 83.6328 114.344 83.6328C111.303 83.6328 108.529 83.2308 106.024 82.4268C103.519 81.5929 101.357 80.4464 99.5378 78.9873C97.7187 77.4982 96.3169 75.7702 95.3328 73.8047C94.5748 72.2677 94.1094 70.6336 93.9353 68.9023C92.9704 70.0062 91.7718 70.9115 90.3376 71.6162C90.1317 71.7191 89.9214 71.8149 89.7087 71.9062L98.2546 83.1865H87.2957L79.614 73.001H74.2781V83.1865H65.2419V62.6445L56.0154 83.1865H47.2927L36.489 59.7334H17.9675V63.709H36.7107V71.0352H17.9675V75.3682H39.1707V83.1865H8.70776V51.916H42.5066L48.4109 65.2285C48.5898 65.6454 48.8437 66.2113 49.1716 66.9258C49.5294 67.6404 49.9022 68.474 50.2898 69.4268C50.7073 70.3499 51.1101 71.3478 51.4978 72.4199C51.5548 72.5774 51.6078 72.737 51.6628 72.8965C51.8003 72.5203 51.9389 72.1531 52.0789 71.7949C52.5858 70.5441 53.0783 69.3827 53.5554 68.3105C54.0624 67.2384 54.4944 66.2406 54.8523 65.3174L60.6677 51.916H83.3142C86.2963 51.916 88.7416 52.318 90.6501 53.1221C92.5886 53.8964 94.0206 55.0578 94.9451 56.6064C95.489 57.4723 95.8772 58.4497 96.1111 59.5381C97.032 58.106 98.1885 56.8306 99.5818 55.7129C101.401 54.2238 103.549 53.0775 106.024 52.2734C108.529 51.4396 111.288 51.0225 114.3 51.0225ZM114.3 59.957C112.749 59.957 111.317 60.15 110.005 60.5371C108.723 60.8944 107.604 61.4158 106.65 62.1006C105.696 62.7558 104.965 63.5304 104.458 64.4238C103.951 65.3171 103.698 66.285 103.698 67.3271C103.698 68.3695 103.951 69.338 104.458 70.2314C104.965 71.1249 105.696 71.9137 106.65 72.5986C107.604 73.2538 108.722 73.775 110.005 74.1621C111.317 74.5195 112.749 74.6982 114.3 74.6982C115.85 74.6982 117.266 74.5194 118.549 74.1621C119.861 73.775 120.98 73.2538 121.904 72.5986C122.858 71.9138 123.589 71.1247 124.095 70.2314C124.632 69.338 124.901 68.3695 124.901 67.3271C124.901 66.285 124.632 65.3171 124.095 64.4238C123.588 63.5305 122.858 62.7557 121.904 62.1006C120.98 61.4156 119.861 60.8945 118.549 60.5371C117.266 60.1501 115.85 59.9571 114.3 59.957ZM74.2781 66.2998H82.7771C83.4928 66.2998 84.1494 66.1806 84.7458 65.9424C85.3421 65.7041 85.8197 65.3324 86.1775 64.8262C86.5651 64.3199 86.7585 63.6795 86.7585 62.9053C86.7585 62.1013 86.565 61.4608 86.1775 60.9844C85.8196 60.4781 85.3272 60.1054 84.7009 59.8672C84.0747 59.629 83.3888 59.5098 82.6433 59.5098H74.2781V66.2998Z" fill="#F5889B"/>
<path d="M114.3 51.0225L114.3 48.3784H114.3V51.0225ZM122.53 52.2734L121.686 54.7791L121.704 54.7852L121.722 54.791L122.53 52.2734ZM129.016 55.7129L127.342 57.7589L127.352 57.7672L127.362 57.7754L129.016 55.7129ZM133.221 60.8945L130.85 62.0641L130.861 62.0855L130.872 62.1067L133.221 60.8945ZM134.742 67.2832L137.386 67.2832V67.2832H134.742ZM133.221 73.8047L130.864 72.6069L130.861 72.6139L130.857 72.6209L133.221 73.8047ZM129.016 78.9873L130.671 81.0498L130.681 81.0416L130.691 81.0333L129.016 78.9873ZM122.53 82.4268L123.347 84.9415L123.356 84.9385L123.365 84.9355L122.53 82.4268ZM114.344 83.6328V86.2769H114.345L114.344 83.6328ZM106.024 82.4268L105.189 84.9355L105.203 84.94L105.216 84.9443L106.024 82.4268ZM99.5378 78.9873L97.8631 81.0333L97.8732 81.0416L97.8834 81.0498L99.5378 78.9873ZM95.3328 73.8047L92.9614 74.9742L92.9649 74.9813L92.9685 74.9884L95.3328 73.8047ZM93.9353 68.9023L96.5661 68.6378L95.9562 62.573L91.9446 67.1622L93.9353 68.9023ZM90.3376 71.6162L89.1715 69.2432L89.164 69.2469L89.1565 69.2506L90.3376 71.6162ZM89.7087 71.9062L88.6647 69.477L85.5616 70.8107L87.6012 73.5029L89.7087 71.9062ZM98.2546 83.1865V85.8306H103.575L100.362 81.5898L98.2546 83.1865ZM87.2957 83.1865L85.1846 84.7786L85.978 85.8306H87.2957V83.1865ZM79.614 73.001L81.725 71.4089L80.9317 70.3569H79.614V73.001ZM74.2781 73.001V70.3569H71.634V73.001H74.2781ZM74.2781 83.1865V85.8306H76.9222V83.1865H74.2781ZM65.2419 83.1865H62.5979V85.8306H65.2419V83.1865ZM65.2419 62.6445H67.886L62.83 61.5612L65.2419 62.6445ZM56.0154 83.1865V85.8306H57.7263L58.4273 84.2699L56.0154 83.1865ZM47.2927 83.1865L44.8912 84.2928L45.5996 85.8306H47.2927V83.1865ZM36.489 59.7334L38.8905 58.6271L38.1821 57.0893H36.489V59.7334ZM17.9675 59.7334V57.0893H15.3235V59.7334H17.9675ZM17.9675 63.709H15.3235V66.3531H17.9675V63.709ZM36.7107 63.709H39.3548V61.0649H36.7107V63.709ZM36.7107 71.0352V73.6792H39.3548V71.0352H36.7107ZM17.9675 71.0352V68.3911H15.3235V71.0352H17.9675ZM17.9675 75.3682H15.3235V78.0122H17.9675V75.3682ZM39.1707 75.3682H41.8147V72.7241H39.1707V75.3682ZM39.1707 83.1865V85.8306H41.8147V83.1865H39.1707ZM8.70776 83.1865H6.06368V85.8306H8.70776V83.1865ZM8.70776 51.916V49.2719H6.06368V51.916H8.70776ZM42.5066 51.916L44.9236 50.844L44.2264 49.2719H42.5066V51.916ZM48.4109 65.2285L50.8407 64.1857L50.8344 64.1711L50.8279 64.1565L48.4109 65.2285ZM49.1716 66.9258L46.7686 68.0287L46.7873 68.0694L46.8073 68.1095L49.1716 66.9258ZM50.2898 69.4268L47.8406 70.4231L47.8597 70.4701L47.8806 70.5163L50.2898 69.4268ZM51.4978 72.4199L53.9843 71.5208L53.9843 71.5208L51.4978 72.4199ZM51.6628 72.8965L49.1634 73.7591L51.592 80.7961L54.1464 73.8038L51.6628 72.8965ZM52.0789 71.7949L49.6284 70.8017L49.6222 70.8171L49.6161 70.8326L52.0789 71.7949ZM53.5554 68.3105L51.1651 67.1803L51.1521 67.2077L51.1398 67.2355L53.5554 68.3105ZM54.8523 65.3174L52.4267 64.2648L52.4059 64.3129L52.387 64.3617L54.8523 65.3174ZM60.6677 51.916V49.2719H58.9328L58.2422 50.8635L60.6677 51.916ZM83.3142 51.916V49.2719V51.916ZM90.6501 53.1221L89.6236 55.5587L89.6464 55.5683L89.6693 55.5775L90.6501 53.1221ZM94.9451 56.6064L92.6748 57.9617L92.6902 57.9876L92.7062 58.0131L94.9451 56.6064ZM96.1111 59.5381L93.526 60.0935L94.8713 66.3546L98.335 60.9682L96.1111 59.5381ZM99.5818 55.7129L101.236 57.7753L101.246 57.7672L101.257 57.7589L99.5818 55.7129ZM106.024 52.2734L106.841 54.7882L106.85 54.7852L106.859 54.7822L106.024 52.2734ZM114.3 59.957L114.3 57.313H114.3V59.957ZM110.005 60.5371L110.715 63.0841L110.734 63.0788L110.753 63.0731L110.005 60.5371ZM106.65 62.1006L108.147 64.2804L108.169 64.2648L108.192 64.2487L106.65 62.1006ZM104.458 64.4238L102.158 63.1189L102.158 63.1189L104.458 64.4238ZM103.698 67.3271L101.054 67.327V67.3271H103.698ZM104.458 70.2314L106.757 68.9265L104.458 70.2314ZM106.65 72.5986L105.108 74.7467L105.131 74.7628L105.154 74.7784L106.65 72.5986ZM110.005 74.1621L109.24 76.6933L109.275 76.7038L109.31 76.7133L110.005 74.1621ZM114.3 74.6982V77.3423H114.3L114.3 74.6982ZM118.549 74.1621L119.258 76.7091L119.278 76.7038L119.297 76.6981L118.549 74.1621ZM121.904 72.5986L123.433 74.7559L123.439 74.7513L123.446 74.7466L121.904 72.5986ZM124.095 70.2314L121.829 68.8697L121.812 68.8979L121.796 68.9264L124.095 70.2314ZM124.901 67.3271H127.545V67.3269L124.901 67.3271ZM124.095 64.4238L121.796 65.7288L121.812 65.7574L121.829 65.7856L124.095 64.4238ZM121.904 62.1006L120.33 64.2251L120.368 64.2534L120.407 64.2804L121.904 62.1006ZM118.549 60.5371L117.784 63.0684L117.819 63.0788L117.854 63.0883L118.549 60.5371ZM74.2781 66.2998H71.634V68.9439H74.2781V66.2998ZM84.7458 65.9424L85.7267 68.3978L85.7269 68.3977L84.7458 65.9424ZM86.1775 64.8262L84.0781 63.2187L84.0475 63.2588L84.0183 63.3L86.1775 64.8262ZM86.7585 62.9053L89.4026 62.9054V62.9053H86.7585ZM86.1775 60.9844L84.0183 62.5106L84.0699 62.5835L84.1262 62.6528L86.1775 60.9844ZM84.7009 59.8672L85.6411 57.3959L85.641 57.3959L84.7009 59.8672ZM82.6433 59.5098L82.6433 56.8657H82.6433V59.5098ZM74.2781 59.5098V56.8657H71.634V59.5098H74.2781ZM114.3 51.0225L114.3 53.6665C117.067 53.6666 119.521 54.0497 121.686 54.7791L122.53 52.2734L123.374 49.7677C120.589 48.8295 117.555 48.3784 114.3 48.3784L114.3 51.0225ZM122.53 52.2734L121.722 54.791C123.949 55.5058 125.808 56.5037 127.342 57.7589L129.016 55.7129L130.691 53.6669C128.586 51.944 126.121 50.6493 123.338 49.7559L122.53 52.2734ZM129.016 55.7129L127.362 57.7754C128.895 59.005 130.045 60.4322 130.85 62.0641L133.221 60.8945L135.593 59.7249C134.429 57.3664 132.776 55.3392 130.671 53.6504L129.016 55.7129ZM133.221 60.8945L130.872 62.1067C131.685 63.683 132.098 65.3953 132.098 67.2832H134.742H137.386C137.386 64.5848 136.786 62.0371 135.571 59.6823L133.221 60.8945ZM134.742 67.2832L132.098 67.2832C132.098 69.2415 131.68 71.0021 130.864 72.6069L133.221 73.8047L135.579 75.0024C136.791 72.617 137.386 70.0299 137.386 67.2832L134.742 67.2832ZM133.221 73.8047L130.857 72.6209C130.051 74.2312 128.893 75.6714 127.342 76.9413L129.016 78.9873L130.691 81.0333C132.778 79.3251 134.424 77.3093 135.586 74.9884L133.221 73.8047ZM129.016 78.9873L127.362 76.9248C125.817 78.1637 123.942 79.1702 121.695 79.918L122.53 82.4268L123.365 84.9355C126.128 84.0157 128.577 82.7294 130.671 81.0498L129.016 78.9873ZM122.53 82.4268L121.713 79.912C119.537 80.6189 117.089 80.9887 114.344 80.9887L114.344 83.6328L114.345 86.2769C117.564 86.2768 120.573 85.8427 123.347 84.9415L122.53 82.4268ZM114.344 83.6328V80.9887C111.535 80.9887 109.039 80.6174 106.832 79.9092L106.024 82.4268L105.216 84.9443C108.019 85.8441 111.07 86.2769 114.344 86.2769V83.6328ZM106.024 82.4268L106.859 79.918C104.613 79.1702 102.737 78.1636 101.192 76.9248L99.5378 78.9873L97.8834 81.0498C99.9771 82.7293 102.426 84.0157 105.189 84.9355L106.024 82.4268ZM99.5378 78.9873L101.213 76.9413C99.6613 75.6714 98.5033 74.2312 97.6971 72.6209L95.3328 73.8047L92.9685 74.9884C94.1305 77.3093 95.7761 79.3251 97.8631 81.0333L99.5378 78.9873ZM95.3328 73.8047L97.7041 72.6352C97.0885 71.387 96.7092 70.06 96.5661 68.6378L93.9353 68.9023L91.3045 69.1669C91.5097 71.2073 92.061 73.1485 92.9614 74.9742L95.3328 73.8047ZM93.9353 68.9023L91.9446 67.1622C91.2289 67.9809 90.3185 68.6795 89.1715 69.2432L90.3376 71.6162L91.5038 73.9892C93.225 73.1434 94.7118 72.0315 95.926 70.6425L93.9353 68.9023ZM90.3376 71.6162L89.1565 69.2506C89.0061 69.3257 88.8433 69.4003 88.6647 69.477L89.7087 71.9062L90.7528 74.3355C90.9995 74.2294 91.2572 74.1124 91.5188 73.9818L90.3376 71.6162ZM89.7087 71.9062L87.6012 73.5029L96.1471 84.7832L98.2546 83.1865L100.362 81.5898L91.8163 70.3096L89.7087 71.9062ZM98.2546 83.1865V80.5424H87.2957V83.1865V85.8306H98.2546V83.1865ZM87.2957 83.1865L89.4067 81.5944L81.725 71.4089L79.614 73.001L77.503 74.5931L85.1846 84.7786L87.2957 83.1865ZM79.614 73.001V70.3569H74.2781V73.001V75.6451H79.614V73.001ZM74.2781 73.001H71.634V83.1865H74.2781H76.9222V73.001H74.2781ZM74.2781 83.1865V80.5424H65.2419V83.1865V85.8306H74.2781V83.1865ZM65.2419 83.1865H67.886V62.6445H65.2419H62.5979V83.1865H65.2419ZM65.2419 62.6445L62.83 61.5612L53.6034 82.1032L56.0154 83.1865L58.4273 84.2699L67.6539 63.7279L65.2419 62.6445ZM56.0154 83.1865V80.5424H47.2927V83.1865V85.8306H56.0154V83.1865ZM47.2927 83.1865L49.6943 82.0803L38.8905 58.6271L36.489 59.7334L34.0875 60.8397L44.8912 84.2928L47.2927 83.1865ZM36.489 59.7334V57.0893H17.9675V59.7334V62.3775H36.489V59.7334ZM17.9675 59.7334H15.3235V63.709H17.9675H20.6116V59.7334H17.9675ZM17.9675 63.709V66.3531H36.7107V63.709V61.0649H17.9675V63.709ZM36.7107 63.709H34.0666V71.0352H36.7107H39.3548V63.709H36.7107ZM36.7107 71.0352V68.3911H17.9675V71.0352V73.6792H36.7107V71.0352ZM17.9675 71.0352H15.3235V75.3682H17.9675H20.6116V71.0352H17.9675ZM17.9675 75.3682V78.0122H39.1707V75.3682V72.7241H17.9675V75.3682ZM39.1707 75.3682H36.5266V83.1865H39.1707H41.8147V75.3682H39.1707ZM39.1707 83.1865V80.5424H8.70776V83.1865V85.8306H39.1707V83.1865ZM8.70776 83.1865H11.3518V51.916H8.70776H6.06368V83.1865H8.70776ZM8.70776 51.916V54.5601H42.5066V51.916V49.2719H8.70776V51.916ZM42.5066 51.916L40.0896 52.988L45.9939 66.3005L48.4109 65.2285L50.8279 64.1565L44.9236 50.844L42.5066 51.916ZM48.4109 65.2285L45.9811 66.2713C46.173 66.7184 46.4376 67.3076 46.7686 68.0287L49.1716 66.9258L51.5747 65.8229C51.2498 65.115 51.0066 64.5724 50.8407 64.1857L48.4109 65.2285ZM49.1716 66.9258L46.8073 68.1095C47.1273 68.7485 47.4721 69.5172 47.8406 70.4231L50.2898 69.4268L52.739 68.4304C52.3323 67.4309 51.9316 66.5323 51.5359 65.7421L49.1716 66.9258ZM50.2898 69.4268L47.8806 70.5163C48.2667 71.3701 48.6442 72.3038 49.0113 73.3191L51.4978 72.4199L53.9843 71.5208C53.5761 70.3919 53.1478 69.3298 52.699 68.3373L50.2898 69.4268ZM51.4978 72.4199L49.0113 73.3191C49.0598 73.4532 49.0949 73.5606 49.1634 73.7591L51.6628 72.8965L54.1623 72.0339C54.1207 71.9135 54.0497 71.7016 53.9843 71.5208L51.4978 72.4199ZM51.6628 72.8965L54.1464 73.8038C54.2775 73.445 54.4092 73.0962 54.5416 72.7573L52.0789 71.7949L49.6161 70.8326C49.4686 71.2101 49.3231 71.5957 49.1793 71.9892L51.6628 72.8965ZM52.0789 71.7949L54.5293 72.7881C55.0265 71.5613 55.5074 70.4274 55.9711 69.3856L53.5554 68.3105L51.1398 67.2355C50.6491 68.3379 50.1451 69.5269 49.6284 70.8017L52.0789 71.7949ZM53.5554 68.3105L55.9457 69.4408C56.475 68.3216 56.9331 67.2649 57.3176 66.273L54.8523 65.3174L52.387 64.3617C52.0557 65.2163 51.6498 66.1553 51.1651 67.1803L53.5554 68.3105ZM54.8523 65.3174L57.2778 66.3699L63.0933 52.9686L60.6677 51.916L58.2422 50.8635L52.4267 64.2648L54.8523 65.3174ZM60.6677 51.916V54.5601H83.3142V51.916V49.2719H60.6677V51.916ZM83.3142 51.916V54.5601C86.0864 54.5601 88.1498 54.9378 89.6236 55.5587L90.6501 53.1221L91.6767 50.6854C89.3334 49.6982 86.5061 49.2719 83.3142 49.2719V51.916ZM90.6501 53.1221L89.6693 55.5775C91.1576 56.172 92.0933 56.9877 92.6748 57.9617L94.9451 56.6064L97.2154 55.2511C95.9479 53.128 94.0195 51.6208 91.631 50.6666L90.6501 53.1221ZM94.9451 56.6064L92.7062 58.0131C93.0713 58.5942 93.3509 59.2787 93.526 60.0935L96.1111 59.5381L98.6962 58.9826C98.4035 57.6206 97.9068 56.3503 97.1839 55.1998L94.9451 56.6064ZM96.1111 59.5381L98.335 60.9682C99.0945 59.7872 100.055 58.7227 101.236 57.7753L99.5818 55.7129L97.9273 53.6504C96.3217 54.9384 94.9695 56.4248 93.8871 58.108L96.1111 59.5381ZM99.5818 55.7129L101.257 57.7589C102.795 56.4995 104.645 55.5017 106.841 54.7882L106.024 52.2734L105.207 49.7587C102.453 50.6533 100.007 51.9482 97.907 53.6669L99.5818 55.7129ZM106.024 52.2734L106.859 54.7822C109.06 54.0496 111.532 53.6665 114.3 53.6665V51.0225V48.3784C111.043 48.3784 107.998 48.8297 105.189 49.7647L106.024 52.2734ZM114.3 59.957V57.313C112.53 57.313 110.842 57.5332 109.256 58.0011L110.005 60.5371L110.753 63.0731C111.791 62.7667 112.968 62.6011 114.3 62.6011V59.957ZM110.005 60.5371L109.295 57.9901C107.753 58.4197 106.345 59.0648 105.108 59.9525L106.65 62.1006L108.192 64.2487C108.863 63.7668 109.692 63.3691 110.715 63.0841L110.005 60.5371ZM106.65 62.1006L105.154 59.9208C103.911 60.7738 102.887 61.8346 102.158 63.1189L104.458 64.4238L106.757 65.7287C107.043 65.2262 107.481 64.7377 108.147 64.2804L106.65 62.1006ZM104.458 64.4238L102.158 63.1189C101.421 64.4172 101.054 65.8357 101.054 67.327L103.698 67.3271L106.342 67.3273C106.342 66.7343 106.48 66.2171 106.757 65.7287L104.458 64.4238ZM103.698 67.3271H101.054C101.054 68.8184 101.421 70.2377 102.158 71.5364L104.458 70.2314L106.757 68.9265C106.48 68.4383 106.342 67.9206 106.342 67.3271H103.698ZM104.458 70.2314L102.158 71.5364C102.88 72.8078 103.889 73.8714 105.108 74.7467L106.65 72.5986L108.192 70.4506C107.503 69.956 107.05 69.442 106.757 68.9265L104.458 70.2314ZM106.65 72.5986L105.154 74.7784C106.364 75.6097 107.737 76.2395 109.24 76.6933L110.005 74.1621L110.769 71.6309C109.708 71.3104 108.844 70.8979 108.147 70.4188L106.65 72.5986ZM110.005 74.1621L109.31 76.7133C110.878 77.1402 112.546 77.3423 114.3 77.3423V74.6982V72.0542C112.951 72.0542 111.756 71.8987 110.699 71.611L110.005 74.1621ZM114.3 74.6982L114.3 77.3423C116.052 77.3423 117.711 77.1404 119.258 76.7091L118.549 74.1621L117.839 71.6151C116.822 71.8985 115.648 72.0541 114.3 72.0542L114.3 74.6982ZM118.549 74.1621L119.297 76.6981C120.832 76.2452 122.227 75.6104 123.433 74.7559L121.904 72.5986L120.375 70.4414C119.732 70.8972 118.89 71.3047 117.8 71.6261L118.549 74.1621ZM121.904 72.5986L123.446 74.7466C124.666 73.8707 125.674 72.8066 126.395 71.5365L124.095 70.2314L121.796 68.9264C121.503 69.4428 121.05 69.9569 120.362 70.4507L121.904 72.5986ZM124.095 70.2314L126.362 71.5932C127.146 70.2889 127.545 68.8498 127.545 67.3271H124.901H122.257C122.257 67.8892 122.119 68.3871 121.829 68.8697L124.095 70.2314ZM124.901 67.3271L127.545 67.3269C127.545 65.8043 127.145 64.3659 126.362 63.0621L124.095 64.4238L121.829 65.7856C122.119 66.2683 122.257 66.7656 122.257 67.3274L124.901 67.3271ZM124.095 64.4238L126.395 63.1188C125.667 61.8357 124.644 60.7745 123.401 59.9208L121.904 62.1006L120.407 64.2804C121.072 64.7369 121.51 65.2253 121.796 65.7288L124.095 64.4238ZM121.904 62.1006L123.478 59.9761C122.246 59.0633 120.816 58.4142 119.243 57.986L118.549 60.5371L117.854 63.0883C118.906 63.3748 119.713 63.768 120.33 64.2251L121.904 62.1006ZM118.549 60.5371L119.313 58.0059C117.747 57.5331 116.068 57.313 114.3 57.313L114.3 59.957L114.3 62.6011C115.632 62.6011 116.786 62.767 117.784 63.0684L118.549 60.5371ZM74.2781 66.2998V68.9439H82.7771V66.2998V63.6557H74.2781V66.2998ZM82.7771 66.2998V68.9439C83.7903 68.9439 84.7844 68.7742 85.7267 68.3978L84.7458 65.9424L83.765 63.487C83.5144 63.5871 83.1954 63.6557 82.7771 63.6557V66.2998ZM84.7458 65.9424L85.7269 68.3977C86.7775 67.978 87.672 67.2927 88.3366 66.3524L86.1775 64.8262L84.0183 63.3C83.9674 63.372 83.9068 63.4303 83.7648 63.487L84.7458 65.9424ZM86.1775 64.8262L88.2768 66.4336C89.089 65.3729 89.4026 64.1313 89.4026 62.9054L86.7585 62.9053L84.1145 62.9052C84.1145 63.0732 84.0934 63.1646 84.0825 63.2009C84.073 63.2322 84.069 63.2306 84.0781 63.2187L86.1775 64.8262ZM86.7585 62.9053H89.4026C89.4026 61.6842 89.1049 60.3932 88.2287 59.316L86.1775 60.9844L84.1262 62.6528C84.0841 62.6009 84.0762 62.5667 84.0825 62.5874C84.0908 62.6151 84.1145 62.7119 84.1145 62.9053H86.7585ZM86.1775 60.9844L88.3366 59.4582C87.6509 58.488 86.7173 57.8053 85.6411 57.3959L84.7009 59.8672L83.7608 62.3385C83.9371 62.4056 83.9884 62.4682 84.0183 62.5106L86.1775 60.9844ZM84.7009 59.8672L85.641 57.3959C84.6828 57.0313 83.6742 56.8657 82.6433 56.8657L82.6433 59.5098L82.6433 62.1538C83.1034 62.1539 83.4667 62.2266 83.7608 62.3385L84.7009 59.8672ZM82.6433 59.5098V56.8657H74.2781V59.5098V62.1538H82.6433V59.5098ZM74.2781 59.5098H71.634V66.2998H74.2781H76.9222V59.5098H74.2781Z" fill="#1D1C1F" mask="url(#path-8-outside-2_2097_2538)"/>
<path d="M114.3 51.0225C117.311 51.0225 120.055 51.4396 122.53 52.2734C125.035 53.0775 127.197 54.2238 129.016 55.7129C130.835 57.1721 132.237 58.8993 133.221 60.8945C134.235 62.8601 134.742 64.9901 134.742 67.2832C134.742 69.6357 134.235 71.8095 133.221 73.8047C132.237 75.7702 130.835 77.4982 129.016 78.9873C127.197 80.4465 125.035 81.5929 122.53 82.4268C120.055 83.2308 117.326 83.6328 114.344 83.6328C111.303 83.6328 108.529 83.2308 106.024 82.4268C103.519 81.5929 101.357 80.4464 99.5378 78.9873C97.7187 77.4982 96.3169 75.7702 95.3328 73.8047C94.5748 72.2677 94.1094 70.6336 93.9353 68.9023C92.9704 70.0062 91.7718 70.9115 90.3376 71.6162C90.1317 71.7191 89.9214 71.8149 89.7087 71.9062L98.2546 83.1865H87.2957L79.614 73.001H74.2781V83.1865H65.2419V62.6445L56.0154 83.1865H47.2927L36.489 59.7334H17.9675V63.709H36.7107V71.0352H17.9675V75.3682H39.1707V83.1865H8.70776V51.916H42.5066L48.4109 65.2285C48.5898 65.6454 48.8437 66.2113 49.1716 66.9258C49.5294 67.6404 49.9022 68.474 50.2898 69.4268C50.7073 70.3499 51.1101 71.3478 51.4978 72.4199C51.5548 72.5774 51.6078 72.737 51.6628 72.8965C51.8003 72.5203 51.9389 72.1531 52.0789 71.7949C52.5858 70.5441 53.0783 69.3827 53.5554 68.3105C54.0624 67.2384 54.4944 66.2406 54.8523 65.3174L60.6677 51.916H83.3142C86.2963 51.916 88.7416 52.318 90.6501 53.1221C92.5886 53.8964 94.0206 55.0578 94.9451 56.6064C95.489 57.4723 95.8772 58.4497 96.1111 59.5381C97.032 58.106 98.1885 56.8306 99.5818 55.7129C101.401 54.2238 103.549 53.0775 106.024 52.2734C108.529 51.4396 111.288 51.0225 114.3 51.0225ZM114.3 59.957C112.749 59.957 111.317 60.15 110.005 60.5371C108.723 60.8944 107.604 61.4158 106.65 62.1006C105.696 62.7558 104.965 63.5304 104.458 64.4238C103.951 65.3171 103.698 66.285 103.698 67.3271C103.698 68.3695 103.951 69.338 104.458 70.2314C104.965 71.1249 105.696 71.9137 106.65 72.5986C107.604 73.2538 108.722 73.775 110.005 74.1621C111.317 74.5195 112.749 74.6982 114.3 74.6982C115.85 74.6982 117.266 74.5194 118.549 74.1621C119.861 73.775 120.98 73.2538 121.904 72.5986C122.858 71.9138 123.589 71.1247 124.095 70.2314C124.632 69.338 124.901 68.3695 124.901 67.3271C124.901 66.285 124.632 65.3171 124.095 64.4238C123.588 63.5305 122.858 62.7557 121.904 62.1006C120.98 61.4156 119.861 60.8945 118.549 60.5371C117.266 60.1501 115.85 59.9571 114.3 59.957ZM74.2781 66.2998H82.7771C83.4928 66.2998 84.1494 66.1806 84.7458 65.9424C85.3421 65.7041 85.8197 65.3324 86.1775 64.8262C86.5651 64.3199 86.7585 63.6795 86.7585 62.9053C86.7585 62.1013 86.565 61.4608 86.1775 60.9844C85.8196 60.4781 85.3272 60.1054 84.7009 59.8672C84.0747 59.629 83.3888 59.5098 82.6433 59.5098H74.2781V66.2998Z" fill="#FDFEFD"/>
</g>
<defs>
<linearGradient id="paint0_linear_2097_2538" x1="-6" y1="27.5" x2="140" y2="125.5" gradientUnits="userSpaceOnUse">
<stop stop-color="#EFA960"/>
<stop offset="0.482504" stop-color="#F5889B"/>
<stop offset="1" stop-color="#A081F5"/>
</linearGradient>
<linearGradient id="paint1_linear_2097_2538" x1="16.9942" y1="78.4702" x2="138.465" y2="78.4702" gradientUnits="userSpaceOnUse">
<stop stop-color="#EFA960"/>
<stop offset="0.482504" stop-color="#F5889B"/>
<stop offset="1" stop-color="#A081F5"/>
</linearGradient>
</defs>
</svg>
